<?xml version="1.0" standalone="no"?>
<!DOCTYPE svg PUBLIC "-//W3C//DTD SVG 20010904//EN"
 "http://www.w3.org/TR/2001/REC-SVG-20010904/DTD/svg10.dtd">
<svg version="1.0" xmlns="http://www.w3.org/2000/svg"
 width="96.000000pt" height="96.000000pt" viewBox="0 0 96.000000 96.000000"
 preserveAspectRatio="xMidYMid meet">
<metadata>
Created by potrace 1.11, written by Peter Selinger 2001-2013
</metadata>
<g transform="translate(0.000000,96.000000) scale(0.100000,-0.100000)"
fill="#000000" stroke="none">
<path d="M0 480 l0 -480 480 0 480 0 0 480 0 480 -480 0 -480 0 0 -480z m428
218 l-3 -43 -72 -3 -73 -3 0 -54 0 -55 75 0 75 0 0 -40 0 -40 -75 0 -75 0 0
-110 0 -110 -45 0 -45 0 0 250 0 250 121 0 120 0 -3 -42z m289 22 c43 -26 63
-68 63 -130 0 -101 -52 -160 -142 -160 l-48 0 0 -95 0 -95 -45 0 -45 0 0 250
0 250 93 0 c74 0 98 -4 124 -20z"/>
<path d="M590 586 l0 -76 34 0 c59 0 98 76 63 124 -7 9 -32 20 -55 23 l-42 6
0 -77z"/>
</g>
</svg>
